<?xml version="1.0" standalone="no"?>
<!DOCTYPE svg PUBLIC "-//W3C//DTD SVG 20010904//EN"
 "http://www.w3.org/TR/2001/REC-SVG-20010904/DTD/svg10.dtd">
<svg version="1.0" xmlns="http://www.w3.org/2000/svg"
 width="383.000000pt" height="398.000000pt" viewBox="0 0 383.000000 398.000000"
 preserveAspectRatio="xMidYMid meet">

<g transform="translate(0.000000,398.000000) scale(0.100000,-0.100000)"
fill="#000000" stroke="none">
<path d="M1795 3510 c-378 -38 -714 -203 -980 -481 -274 -287 -425 -668 -426
-1068 0 -435 154 -807 460 -1111 259 -257 517 -384 903 -445 241 -37 532 0
780 99 463 186 808 580 933 1066 60 231 60 536 1 770 -103 405 -374 761 -741
973 -141 82 -336 151 -510 182 -108 19 -309 26 -420 15z m85 -1380 l0 -600
260 0 260 0 0 -65 0 -65 -340 0 -340 0 0 665 0 665 80 0 80 0 0 -600z"/>
</g>
</svg>
